<?xml version="1.0" encoding="utf-8"?>
<!-- Generator: Adobe Illustrator 16.0.0, SVG Export Plug-In . SVG Version: 6.00 Build 0)  -->
<!DOCTYPE svg PUBLIC "-//W3C//DTD SVG 1.1//EN" "http://www.w3.org/Graphics/SVG/1.1/DTD/svg11.dtd">
<svg version="1.1" xmlns="http://www.w3.org/2000/svg" xmlns:xlink="http://www.w3.org/1999/xlink" x="0px" y="0px"
	 width="127.125px" height="25px" viewBox="0 0 127.125 25" enable-background="new 0 0 127.125 25" xml:space="preserve">
<g id="logo">
	<g>
		<path fill-rule="evenodd" clip-rule="evenodd" fill="#59AAB2" d="M21.68,5.273c-6.015-0.608-8.68,3.875-8.602,7.264
			c0.088,3.836,3.262,7.666,8.595,7.018c-1.307,1.494-2.802,2.43-4.498,3.046c-0.724,0.263-1.493,0.487-2.255,0.542
			c-3.656,0.264-7.311,0.24-10.961-0.182c-1.118-0.128-1.499-0.781-1.553-1.779c-0.051-0.961-0.142-1.921-0.149-2.881
			C2.218,13.344,1.986,8.386,2.385,3.434C2.44,2.755,2.543,2.03,3.413,1.95c4.741-0.435,9.499-1.089,14.166,0.462
			C19.14,2.931,20.43,3.921,21.68,5.273z"/>
		<path fill-rule="evenodd" clip-rule="evenodd" fill="#59AAB2" d="M20.361,17.991c-3.059,0.015-5.382-2.31-5.389-5.392
			c-0.006-3.027,2.378-5.468,5.354-5.48c2.944-0.011,5.371,2.476,5.363,5.496C25.683,15.583,23.308,17.978,20.361,17.991z"/>
	</g>
</g>
<g id="text">
	<text transform="matrix(0.9206 0 0 1 28.3071 17.4297)"><tspan x="0" y="0" font-family="'Myriad-Roman'" font-size="14.9566">dental</tspan><tspan x="39.889" y="0" fill="#59AAB2" font-family="'Myriad-Roman'" font-size="14.9566">consulting</tspan><tspan x="105.877" y="0" font-family="'Myriad-Roman'" font-size="14.9566"> </tspan></text>
</g>
</svg>
